<svg xmlns="http://www.w3.org/2000/svg" width="464" height="26.88" viewBox="0 0 464 26.88"><defs><style>      .cls-1 {        fill: #131313;        fill-rule: evenodd;      }    </style></defs><path id="icon" class="cls-1" d="M1187.22,4687.26l-1.84,1.52a0.49,0.49,0,0,1-.72,0,7.289,7.289,0,0,1-1.2-1.36,0.207,0.207,0,0,1-.08-0.16,7.313,7.313,0,0,0-.8.72,4.709,4.709,0,0,1-3.04,1.04,4.885,4.885,0,0,1-1.92-.24,2.9,2.9,0,0,1-1.68-1.68,3.439,3.439,0,0,1-.32-1.2l-0.08-.16v-1.04l0.24-.96a4.048,4.048,0,0,1,1.76-2.24,6.31,6.31,0,0,1,2.4-.8l2.88-.4v-1.36a1.626,1.626,0,0,0-.44-0.92,1.566,1.566,0,0,0-.92-0.44,2.066,2.066,0,0,0-1.68.4,1.883,1.883,0,0,0-.64,1.04,0.49,0.49,0,0,1-.16.32,0.535,0.535,0,0,1-.4.16c-0.32-.05-0.78-0.11-1.36-0.16l-0.72-.08a0.531,0.531,0,0,1-.48-0.72,3.939,3.939,0,0,1,1.48-2.44,6.451,6.451,0,0,1,2.4-1.04,7.905,7.905,0,0,1,2.88-.04,4.4,4.4,0,0,1,2.52,1.2,3.3,3.3,0,0,1,.96,2.16,11.144,11.144,0,0,1,.08,1.56v4.2a2.98,2.98,0,0,0,.64,2.08,2.331,2.331,0,0,1,.32.48,0.453,0.453,0,0,1-.08.56h0Zm-4.4-4.8c0-.16-0.06-0.21-0.16-0.16h-0.24a5.6,5.6,0,0,0-1.92.32,2.462,2.462,0,0,0-1.04.96,2.428,2.428,0,0,0-.16,1.92,1.232,1.232,0,0,0,.76.96,1.661,1.661,0,0,0,1.24,0,2.5,2.5,0,0,0,1.36-1.68,6.291,6.291,0,0,0,.16-1.68v-0.64Zm6.4,5.92V4675.9a0.464,0.464,0,0,1,.48-0.56h2.16a0.464,0.464,0,0,1,.56.48v1.52h0.08a3.266,3.266,0,0,1,3.2-2.28,3.143,3.143,0,0,1,3.2,2.28,3.431,3.431,0,0,1,.56-0.88,3.016,3.016,0,0,1,2.16-1.36,3.815,3.815,0,0,1,2.52.44,2.783,2.783,0,0,1,1.56,2.12v0.16a10.62,10.62,0,0,1,.16,1.44v9.04a0.5,0.5,0,0,1-.56.56h-2.32a0.494,0.494,0,0,1-.56-0.56v-8.64a1.467,1.467,0,0,0-.36-1.08,1.417,1.417,0,0,0-.92-0.4,1.311,1.311,0,0,0-.96.28,1.776,1.776,0,0,0-.88,1.36l-0.08,1.28v7.2a0.5,0.5,0,0,1-.56.56h-2.24a0.61,0.61,0,0,1-.44-0.12,0.626,0.626,0,0,1-.12-0.44v-6.8c0-.69-0.02-1.21-0.04-1.56a2.722,2.722,0,0,0-.28-1,1.2,1.2,0,0,0-1.48-.72,1.457,1.457,0,0,0-1.32,1.44,9.2,9.2,0,0,0-.16,1.44v7.2a0.518,0.518,0,0,1-.16.48,0.794,0.794,0,0,1-.32.08h-2.4a0.424,0.424,0,0,1-.48-0.48h0Zm19.2-1.28a4.653,4.653,0,0,1-.28-2.84,3.834,3.834,0,0,1,1.64-2.6,5.259,5.259,0,0,1,2.08-.96l2.08-.24a6.579,6.579,0,0,1,1.28-.16l0.08-.08v-0.4a4.708,4.708,0,0,0-.16-1.36,1.625,1.625,0,0,0-1.2-.92,2.108,2.108,0,0,0-1.76.44,1.626,1.626,0,0,0-.56.92,0.557,0.557,0,0,1-.64.52c-0.86-.11-1.52-0.17-2-0.2s-0.67-.25-0.56-0.68a3.961,3.961,0,0,1,.92-1.88,5.606,5.606,0,0,1,1.88-1.32,7.879,7.879,0,0,1,3.84-.32,4.762,4.762,0,0,1,2.2.76,2.867,2.867,0,0,1,1.32,2.04,14.574,14.574,0,0,1,.16,1.6v4.72a3.389,3.389,0,0,0,.72,2.08l0.08,0.16c0.1,0.16.2,0.31,0.28,0.44a0.347,0.347,0,0,1-.12.44l-1.84,1.52a0.5,0.5,0,0,1-.8,0,7.289,7.289,0,0,1-1.2-1.36,0.245,0.245,0,0,0-.08-0.16,8.378,8.378,0,0,1-.8.72,4.709,4.709,0,0,1-3.04,1.04,5.449,5.449,0,0,1-1.84-.24A3.207,3.207,0,0,1,1208.42,4687.1Zm3.24-2a1.407,1.407,0,0,0,.72,1.32,1.608,1.608,0,0,0,1.48,0,2.689,2.689,0,0,0,1.28-1.56,7.983,7.983,0,0,0,.16-1.76v-0.4a0.963,0.963,0,0,0-.04-0.36,0.776,0.776,0,0,0-.36-0.04h-0.08a4.347,4.347,0,0,0-1.88.36,2.164,2.164,0,0,0-1.08,1A3.011,3.011,0,0,0,1211.66,4685.1Zm43.88,3.12a0.533,0.533,0,0,1-.56.64h-2.24a0.61,0.61,0,0,1-.44-0.12,0.626,0.626,0,0,1-.12-0.44v-7.76l-0.08-.48c-0.06-.43-0.11-0.75-0.16-0.96a1.46,1.46,0,0,0-.8-0.88,1.357,1.357,0,0,0-1.76.56,4.2,4.2,0,0,0-.56,1.6l-0.08,1.28v6.64a0.5,0.5,0,0,1-.56.56h-2.24a0.494,0.494,0,0,1-.56-0.56v-12.48a0.424,0.424,0,0,1,.48-0.48h2.24a0.424,0.424,0,0,1,.48.48v1.76h0.08a2.755,2.755,0,0,1,.32-0.72,2.938,2.938,0,0,1,1.52-1.52,3.23,3.23,0,0,1,1.12-.24,3.127,3.127,0,0,1,2.56.64,3.161,3.161,0,0,1,1.2,2.08,13.847,13.847,0,0,1,.16,2.4v8Zm-12.08-6.88a16.721,16.721,0,0,1,0,2.24,7.489,7.489,0,0,1-1.16,3.08,5.072,5.072,0,0,1-1.96,1.88,4.721,4.721,0,0,1-2.32.56,5.233,5.233,0,0,1-3.76-1.36,6.29,6.29,0,0,1-1.48-2.48,10.211,10.211,0,0,1-.52-3.36,11.275,11.275,0,0,1,.72-3.52,5.351,5.351,0,0,1,2.48-2.8,7.217,7.217,0,0,1,2-.56,4.861,4.861,0,0,1,3.36.88,6.263,6.263,0,0,1,1.6,1.76,9.129,9.129,0,0,1,1.04,3.68h0Zm-3.6-.56c-0.11-.75-0.22-1.36-0.32-1.84a1.721,1.721,0,0,0-1.12-1.28,1.468,1.468,0,0,0-1.84.72,3.057,3.057,0,0,0-.48,1.28l-0.24,2.16h0.08c0,0.75.01,1.29,0.04,1.64a4,4,0,0,0,.12.84,3.1,3.1,0,0,0,.64,1.6,1.341,1.341,0,0,0,.88.6,1.326,1.326,0,0,0,1.04-.2,2.3,2.3,0,0,0,.92-1.2,5.987,5.987,0,0,0,.28-1.92v-2.4Zm-14.44,12.48a0.66,0.66,0,0,1-.12.32l-0.48.4a8.112,8.112,0,0,1-.96.64l-1.76.96a0.93,0.93,0,0,1-.32.16l-1.44.72-1.04.4q-0.96.315-1.44,0.48a5.132,5.132,0,0,1-1.12.32l-0.64.24-1.36.32-0.56.08a0.1,0.1,0,0,0-.16,0l-0.08.08-0.88.16-0.96.08a6.668,6.668,0,0,1-1.28.16h-0.28a0.8,0.8,0,0,0-.36.08l-1.36.08h-1.92a16.111,16.111,0,0,1-1.92-.16,7.89,7.89,0,0,1-1.92-.24l-0.88-.08a2.742,2.742,0,0,0-.88-0.16,1.236,1.236,0,0,0-.52-0.16,0.389,0.389,0,0,1-.28-0.08l-0.56-.16-0.64-.08a1.18,1.18,0,0,0-.64-0.24l-0.96-.32a1.408,1.408,0,0,1-.32-0.08l-0.16-.16a4.8,4.8,0,0,1-.96-0.32l-0.32-.16a2.949,2.949,0,0,1-.8-0.32l-0.48-.16a4.918,4.918,0,0,1-1.12-.56c-0.11-.05-0.28-0.15-0.52-0.28a6.753,6.753,0,0,1-.6-0.36,8.741,8.741,0,0,0-.88-0.48l-0.4-.24q-0.645-.48-0.96-0.72c-0.22-.16-0.4-0.29-0.56-0.4l-2-1.52a4.9,4.9,0,0,0-.64-0.56,0.292,0.292,0,0,1-.08-0.24c0-.32.16-0.43,0.48-0.32l0.16,0.08a2.785,2.785,0,0,0,.4.24l1.04,0.64,1.44,0.64a3.508,3.508,0,0,0,.72.4l0.32,0.16,0.64,0.24a0.475,0.475,0,0,0,.32.08l0.88,0.4,1.44,0.48,0.32,0.16,0.64,0.24,1.76,0.4,0.48,0.24,0.96,0.16,0.72,0.24,0.88,0.08c0.96,0.21,1.68.35,2.16,0.4l2,0.24a29.776,29.776,0,0,0,4.96.08,11.618,11.618,0,0,0,1.6-.08c1.06-.11,1.86-0.16,2.4-0.16a3.927,3.927,0,0,1,.88-0.08,1.545,1.545,0,0,0,.32-0.08l0.08-.08a14.139,14.139,0,0,0,1.68-.32,4.208,4.208,0,0,0,.88-0.16l0.8-.16,0.8-.24,1.04-.24a2.338,2.338,0,0,1,.44-0.16,1.025,1.025,0,0,0,.36-0.16l0.8-.24a7.8,7.8,0,0,1,1.04-.32l0.96-.4a7.8,7.8,0,0,1,1.04-.32,0.828,0.828,0,0,1,.64.16A0.412,0.412,0,0,1,1225.42,4693.26Zm5.64-7.12a6.181,6.181,0,0,1,0,1.92,0.481,0.481,0,0,1-.2.44,0.381,0.381,0,0,1-.44-0.04,9.28,9.28,0,0,0-1.96-.72,8.4,8.4,0,0,0-1.96-.24,8.531,8.531,0,0,0-2.56.24,9.38,9.38,0,0,0-1.92.72,0.662,0.662,0,0,1-.44,0,0.456,0.456,0,0,1-.28-0.32v-0.96a4.118,4.118,0,0,0,0-1.12,2.3,2.3,0,0,1,.56-1.44c0.64-.85,1.54-2.13,2.72-3.84l1.84-2.64,0.08-.16h-4.16a0.494,0.494,0,0,1-.56-0.56v-1.6a0.494,0.494,0,0,1,.56-0.56h7.92a0.537,0.537,0,0,1,.64.56v0.4a1.142,1.142,0,0,0,0,.64,2.057,2.057,0,0,1-.4,1.2l-4.32,6.16-0.08.16v0.08h1.12a9.043,9.043,0,0,1,3.44.96,0.7,0.7,0,0,1,.4.72h0Zm-1.84,4.32a6.221,6.221,0,0,1-.24,2l-0.08.56a0.448,0.448,0,0,0-.16.32,5.553,5.553,0,0,1-.32.96l-0.08.24c-0.22.37-.38,0.64-0.48,0.8l-0.48.72a5.868,5.868,0,0,1-.64.72l-0.4.32a0.5,0.5,0,0,1-.32.08l-0.08-.32a0.449,0.449,0,0,1,.16-0.24h0.08v-0.08l0.24-.88a1.539,1.539,0,0,1,.28-0.52,0.378,0.378,0,0,0,.12-0.28v-0.24a9.253,9.253,0,0,0,.32-1.12l0.16-.64a1.7,1.7,0,0,0,0-.72v-0.48a1.593,1.593,0,0,0-1.12-.56h-1.6a6.459,6.459,0,0,0-1.68.08l-0.64.08h-0.88l0.08-.32c0.32-.21.54-0.36,0.68-0.44a0.367,0.367,0,0,1,.36-0.04c-0.06-.05-0.07-0.09-0.04-0.12a0.134,0.134,0,0,1,.12-0.04l0.24-.08a6.756,6.756,0,0,1,.84-0.32,6.327,6.327,0,0,1,.84-0.16l0.4-.08a3.528,3.528,0,0,1,.8-0.08,10.371,10.371,0,0,1,2.48.16,2.772,2.772,0,0,1,.72.24,0.941,0.941,0,0,1,.32.48h0Zm-2.8-.88h0Zm148.48-6a1,1,0,0,1-.72-0.08,1.676,1.676,0,0,1-.48-0.64l-3.68-6v6.72h-4.32a0.49,0.49,0,0,1-.56-0.32l-0.72-1.52a0.214,0.214,0,0,0-.12-0.16,0.434,0.434,0,0,0-.2-0.08h-4.4a17.727,17.727,0,0,0-.64,1.76v0.08a0.525,0.525,0,0,1-.56.24h-2.48a4.011,4.011,0,0,1-2.48-.72,3.939,3.939,0,0,1-1.36-2.32,7.316,7.316,0,0,1,.32-4.32,3.875,3.875,0,0,1,1.2-1.6,2.947,2.947,0,0,1,1.92-.64,11.945,11.945,0,0,0,1.92,0h1.04v2.16h-1.76a2.222,2.222,0,0,0-2,.96,2.688,2.688,0,0,0-.44,1.92,2.808,2.808,0,0,0,.76,1.76,1.229,1.229,0,0,0,.8.48,4.429,4.429,0,0,0,.96.08h0.24a0.232,0.232,0,0,0,.16-0.12,0.434,0.434,0,0,0,.08-0.2c0.37-.75.88-1.92,1.52-3.52l1.44-3.28,0.08-.24c1.33,0,2.32.03,2.96,0.08,0.21,0,.32.08,0.32,0.24,0.37,0.75.88,1.87,1.52,3.36l2.32,4.88v-8.56h0.8a7.465,7.465,0,0,0,1.52,0,1.613,1.613,0,0,1,1.12.2,3.289,3.289,0,0,1,.8.92,31.933,31.933,0,0,0,1.68,2.8l1.44,2.48v-6.32h2.48v9.52h-2.48Zm-11.28-4.24-1.6-3.44c-0.32.8-.8,1.95-1.44,3.44h3.04Zm-17.4,11.6a2.61,2.61,0,0,1,.76,1.76,4.353,4.353,0,0,1-.24,2.24,2.251,2.251,0,0,1-2.08,1.6,23.937,23.937,0,0,1-2.72,0h-1.44v3.36h-4a1.258,1.258,0,0,1-1.04-.48l-2.24-2.64a12.327,12.327,0,0,0-.96,1.04l-1.6,1.76a0.377,0.377,0,0,1-.4.24h-8.56a0.069,0.069,0,0,1-.08-0.08v-9.44h8.48a1.516,1.516,0,0,1,1.28.64c0.85,0.96,1.49,1.71,1.92,2.24l2.4-2.64a0.86,0.86,0,0,1,.64-0.24h8.08A2.527,2.527,0,0,1,1346.22,4690.94Zm-14.36,4c-0.54-.59-1.34-1.41-2.4-2.48a1.236,1.236,0,0,0-.48-0.16h-5.12v1.92h5.2v1.6h-5.2v2.08c2.34,0,4.08-.03,5.2-0.08a1.236,1.236,0,0,0,.48-0.16c0.48-.64,1.25-1.55,2.32-2.72h0Zm6.32-3.84-0.4.32-2.88,3.28a0.244,0.244,0,0,0-.08.2,0.573,0.573,0,0,0,.08.28c0.48,0.48,1.14,1.25,2,2.32l0.32,0.4c0.42,0.43.74,0.77,0.96,1.04v-7.84Zm6.28,3.12a1.085,1.085,0,0,0,.28-0.72,1.156,1.156,0,0,0-.24-0.72,1.018,1.018,0,0,0-.56-0.4h-3.52v2.24h3.44A1.222,1.222,0,0,0,1344.46,4694.22Zm-21.96-10.8-0.16.08h-1.28a1.675,1.675,0,0,1-.68-0.08,1.179,1.179,0,0,1-.28-0.56q-1.77-3.84-2.56-5.68l-0.16-.24v6.56h-4.48a0.427,0.427,0,0,1-.48-0.32l-0.64-1.52a0.377,0.377,0,0,0-.4-0.24h-4a0.462,0.462,0,0,0-.4.24,13.048,13.048,0,0,0-.8,1.84h-2.64l4.24-9.52h2.96a1.269,1.269,0,0,1,.32.24l2.32,5.2c0.64,1.49,1.14,2.61,1.52,3.36v-8.8h2.48a3.51,3.51,0,0,1,1.2.12,1.979,1.979,0,0,1,.56.92l0.8,1.84c0.48,1.01.82,1.79,1.04,2.32l0.48,1.04,2.8-6.24h3.84v9.52h-2.4v-6.64h-0.08q-0.4.885-1.2,2.64l-1.28,2.72c-0.22.48-.38,0.85-0.48,1.12,0,0.05-.06.08-0.16,0.08h0Zm-11.68-4.08-1.44-3.44c-0.38.8-.88,1.95-1.52,3.44h2.96Zm46.04,14.52a2.418,2.418,0,0,1-1.08,1.4l-0.16.24a1.541,1.541,0,0,1,1.2,1.2l0.16,1.04v2.16h-2.32l-0.16-2.4a1.253,1.253,0,0,0-.4-0.68,0.981,0.981,0,0,0-.64-0.28h-2.96v3.36h-2.4v-9.6h6.4a2.664,2.664,0,0,1,1.52.44,2.259,2.259,0,0,1,.88,1.32A3.246,3.246,0,0,1,1356.86,4693.86Zm-2.2-.36a1.252,1.252,0,0,0-.28-0.76,1.139,1.139,0,0,0-.6-0.44h-3.28v2.24h3.12a0.966,0.966,0,0,0,1.04-1.04h0Zm-7.12-10.48v0.48h-2.32l-0.16-1.04a6.811,6.811,0,0,0-.08-1.24,1.416,1.416,0,0,0-.36-0.64,1.272,1.272,0,0,0-.6-0.36h-2.96v3.28h-2.48v-9.44a0.917,0.917,0,0,1,.4-0.08h6.08a3.333,3.333,0,0,1,1.48.52,2.045,2.045,0,0,1,.88,1.28,3.629,3.629,0,0,1-.04,1.76,2.2,2.2,0,0,1-1.12,1.4l-0.32.08a1.988,1.988,0,0,1,1.08.8,2.058,2.058,0,0,1,.36,1.12,20.247,20.247,0,0,0,.16,2.08h0Zm-2.6-5.12a1.082,1.082,0,0,0,.24-0.8,1.264,1.264,0,0,0-.36-0.8,1.219,1.219,0,0,0-.88-0.32,5.035,5.035,0,0,1-1.04.08h-1.92v2.16h3.12A1.078,1.078,0,0,0,1344.94,4677.9Zm-7.64,5.6h-7.68v-9.44h7.68v2.08h-5.2v1.6h5.04v2h-5.04v1.76h5.2v2Zm20.8,6.8h7.76v2.08h-5.36v1.68h5.12v1.84h-5.12v1.84h5.36v2h-7.68q0-6.24-.08-9.44h0Zm16.64,5.52a4.409,4.409,0,0,1-.24,2.56,2.57,2.57,0,0,1-2.08,1.44c-1.23.05-3.04,0.08-5.44,0.08a0.225,0.225,0,0,1-.16-0.08v-2h3.84a5.31,5.31,0,0,0,.72-0.08l0.16-.08a1.175,1.175,0,0,0,.56-0.32,0.667,0.667,0,0,0,.2-0.56,0.649,0.649,0,0,0-.32-0.48,1.342,1.342,0,0,0-.68-0.16h-0.24c-1.12-.11-1.98-0.21-2.56-0.32a2.087,2.087,0,0,1-1.32-.72,2.959,2.959,0,0,1-.52-1.68,3.829,3.829,0,0,1,.32-1.84,2.287,2.287,0,0,1,1.92-1.28q1.2-.075,3.6,0h1.84v2.08h-4.4a0.886,0.886,0,0,0-.72.28,0.614,0.614,0,0,0-.08.68,1.036,1.036,0,0,0,.8.56h1.12a4.562,4.562,0,0,1,.96.08,9.391,9.391,0,0,1,1.52.4,1.99,1.99,0,0,1,1.2,1.44h0Zm8.4,2.72a2.51,2.51,0,0,1-2.04,1.24c-0.83.03-2.04,0.01-3.64-.04h-1.76v-2l4.4-.08a0.848,0.848,0,0,0,.8-0.44,0.659,0.659,0,0,0,0-.76,1.16,1.16,0,0,0-.8-0.4l-0.96-.08c-0.8-.05-1.42-0.11-1.84-0.16a2.193,2.193,0,0,1-1.4-.84,2.594,2.594,0,0,1-.52-1.64,4,4,0,0,1,.48-2.08,2.352,2.352,0,0,1,1.88-1c0.77-.03,1.93-0.01,3.48.04h1.84v2.08h-4.4a0.676,0.676,0,0,0-.84.6,0.656,0.656,0,0,0,.44.76l0.16,0.08a2.342,2.342,0,0,0,.48.08l2.4,0.16a3.119,3.119,0,0,1,1.52.64,2.069,2.069,0,0,1,.64,1.44,3.622,3.622,0,0,1-.32,2.4h0Zm-32.08-15.04h-2.48v-9.44h2.48v9.44Zm137.04,2.16a12.739,12.739,0,0,1-4.96,1.28h-1.76a1.042,1.042,0,0,0-.64.24,1.347,1.347,0,0,0-.48.64l-0.8,3.52a1.83,1.83,0,0,1-.48.68,1.167,1.167,0,0,1-.8.28h-2.16a0.774,0.774,0,0,1-.88-0.96l1.04-4.32,2.32-10.24a1.629,1.629,0,0,1,.48-0.68,1.149,1.149,0,0,1,.8-0.28h4.16a12.484,12.484,0,0,1,2.56.08,6.764,6.764,0,0,1,3.2.96,3.8,3.8,0,0,1,1.68,2.96,5.813,5.813,0,0,1-3.28,5.84h0Zm-2.8-6.64a10.029,10.029,0,0,0-2.08-.16,1.135,1.135,0,0,0-1.12.88l-0.72,3.2a0.543,0.543,0,0,0,.08.52,0.8,0.8,0,0,0,.44.28,2.984,2.984,0,0,0,.76.08,7.89,7.89,0,0,0,1.92-.24,2.78,2.78,0,0,0,2.24-2.4,1.7,1.7,0,0,0-1.52-2.16h0Zm-38,3.68a5.876,5.876,0,0,1-2.8,2.88,9.572,9.572,0,0,1-4,1.2c-0.59.05-1.44,0.08-2.56,0.08a1.269,1.269,0,0,0-1.32,1.12c-0.19.75-.44,1.87-0.76,3.36a1.83,1.83,0,0,1-.48.68,1.073,1.073,0,0,1-.72.28h-2.32a0.786,0.786,0,0,1-.64-0.28,0.771,0.771,0,0,1-.16-0.68q1.275-5.6,2-8.4l1.36-6.16a1.2,1.2,0,0,1,1.28-1.04h3.36c1.22,0,2.18.03,2.88,0.08a10.578,10.578,0,0,1,3.28.72,3.727,3.727,0,0,1,2.08,3.04,5.721,5.721,0,0,1-.48,3.12h0Zm-5.36-3.68a5.882,5.882,0,0,0-1.68-.24h-0.56a1.038,1.038,0,0,0-.72.28,1.629,1.629,0,0,0-.48.68l-0.72,3.04a0.792,0.792,0,0,0,.12.68,0.673,0.673,0,0,0,.6.28,5.474,5.474,0,0,0,2.48-.24,2.619,2.619,0,0,0,2.24-2.56,1.559,1.559,0,0,0-1.28-1.92h0Zm33.6,1.2a4.7,4.7,0,0,1-.32.8l-0.16.24a17.552,17.552,0,0,0-1.04,1.68l-8.24,14a2.252,2.252,0,0,1-.88.96,1.39,1.39,0,0,1-.88.16h-2.4a0.5,0.5,0,0,1-.44-0.16,0.466,0.466,0,0,1-.04-0.44,4.068,4.068,0,0,1,.48-0.92l1.68-2.96a1.769,1.769,0,0,0,.16-0.88v-0.24q-0.165-.96-0.48-2.88l-1.52-8.96a0.792,0.792,0,0,1,.12-0.68,0.673,0.673,0,0,1,.6-0.28h1.92a1.473,1.473,0,0,1,1.6,1.36l0.96,5.92c0,0.21.06,0.32,0.2,0.32a0.2,0.2,0,0,0,.2-0.24l3.44-5.84a1.734,1.734,0,0,1,.32-0.48,2.038,2.038,0,0,1,1.84-1.04h2.48c0.37,0,.5.19,0.4,0.56h0Zm28.32,2.88c-0.06.43-.16,1.01-0.32,1.76l-1.52,6.4a1.205,1.205,0,0,1-1.28,1.04h-1.84a0.727,0.727,0,0,1-.8-1.04v-0.24a6.734,6.734,0,0,0-.96.64,6.066,6.066,0,0,1-4.48.96,3.031,3.031,0,0,1-2-1.24,3.231,3.231,0,0,1-.56-2.36,4.364,4.364,0,0,1,3.12-3.76,12.412,12.412,0,0,1,3.28-.8h0.08c0.58-.11,1.44-0.21,2.56-0.32h0.24a0.5,0.5,0,0,0,.32-0.08,0.475,0.475,0,0,0,.08-0.32,1.047,1.047,0,0,0-.96-1.28,6.771,6.771,0,0,0-2.96-.16,14.282,14.282,0,0,0-2.56.64,0.47,0.47,0,0,1-.48-0.08,0.459,0.459,0,0,1-.08-0.48,7.318,7.318,0,0,1,.36-1.48,1.48,1.48,0,0,1,1.32-1,18.539,18.539,0,0,1,5.28-.32,6.817,6.817,0,0,1,2.16.4,2.67,2.67,0,0,1,2,3.12h0Zm-4.96,3.36-1.52.16a8.63,8.63,0,0,0-1.84.48,1.6,1.6,0,0,0-1.28,1.84,0.86,0.86,0,0,0,.64.92,3.321,3.321,0,0,0,3.2-.52,0.774,0.774,0,0,0,.56-0.48q0.24-1.125.48-2.16,0.15-.24-0.24-0.24h0Zm-38.64-3.6a18.5,18.5,0,0,1-.48,2.32l-1.36,6.16a1.83,1.83,0,0,1-.48.68,1.073,1.073,0,0,1-.72.28h-1.92a0.766,0.766,0,0,1-.68-0.28,0.939,0.939,0,0,1-.12-0.76v-0.24a3.068,3.068,0,0,0-.8.56,6.887,6.887,0,0,1-4.48,1.04,2.949,2.949,0,0,1-2.04-1.12,3.126,3.126,0,0,1-.68-2.24,4.312,4.312,0,0,1,1.28-2.96,5.65,5.65,0,0,1,2.24-1.2,20.4,20.4,0,0,1,2.88-.64c0.64-.11,1.6-0.21,2.88-0.32a0.5,0.5,0,0,0,.32-0.08,0.475,0.475,0,0,0,.08-0.32,1.108,1.108,0,0,0-.96-1.28,7.278,7.278,0,0,0-2.8-.24,11.71,11.71,0,0,0-2.72.72c-0.48.16-.67-0.05-0.56-0.64a10.692,10.692,0,0,1,.36-1.52,1.377,1.377,0,0,1,1.08-.88,22.938,22.938,0,0,1,4.96-.4,8.816,8.816,0,0,1,3.04.64,2.465,2.465,0,0,1,1.68,2.72h0Zm-4.76,3.64a0.313,0.313,0,0,0-.2-0.04l-1.2.16a9.592,9.592,0,0,0-2.08.4,1.814,1.814,0,0,0-1.36,1.84,0.918,0.918,0,0,0,.68,1,4.17,4.17,0,0,0,1.08.2,4.453,4.453,0,0,0,2.24-.8,0.759,0.759,0,0,0,.4-0.48l0.24-1.04c0.1-.48.18-0.83,0.24-1.04A0.371,0.371,0,0,0,1455.5,4686.5Zm55.88-10.36a0.671,0.671,0,0,1,.16.64l-3.2,14.56a1.83,1.83,0,0,1-.48.68,1.073,1.073,0,0,1-.72.28h-2a0.886,0.886,0,0,1-.72-0.28,0.743,0.743,0,0,1-.16-0.68l2.4-10.88c0.21-.8.48-2,0.8-3.6a1.629,1.629,0,0,1,.48-0.68,1.038,1.038,0,0,1,.72-0.28h2.08A0.876,0.876,0,0,1,1511.38,4676.14Zm57.72,6.48a0.649,0.649,0,0,1,.2-0.48l4.56-5.36c1.17-1.39,2.02-2.43,2.56-3.12a0.411,0.411,0,0,1,.28-0.16,0.431,0.431,0,0,1,.28.16c2.56,2.13,4.5,3.73,5.84,4.8a0.488,0.488,0,0,1,.2.4,1.637,1.637,0,0,1-.2.4l-9.84,11.68a0.386,0.386,0,0,1-.2.2,0.272,0.272,0,0,1-.28-0.12q-3.045-2.64-4.96-4.16l0.08-.16a19.214,19.214,0,0,0,2.48.8,2.106,2.106,0,0,0,1.36-.12,1.768,1.768,0,0,0,.92-0.96,1.879,1.879,0,0,0,.04-1.36,1.738,1.738,0,0,0-.88-1l-0.56-.32a16.027,16.027,0,0,0-1.52-.8A0.578,0.578,0,0,1,1569.1,4682.62Zm3.6-2.36a2.541,2.541,0,0,0-.76,1.88,2.744,2.744,0,0,0,.88,2,2.927,2.927,0,0,0,2.04.92,2.459,2.459,0,0,0,1.92-.72,2.58,2.58,0,0,0,.76-1.88,2.783,2.783,0,0,0-.88-2,3.133,3.133,0,0,0-2.08-.96A2.525,2.525,0,0,0,1572.7,4680.26Zm4.68,17.24h-1.36a25.235,25.235,0,0,0-2.8,0,5,5,0,0,1-3.44-1.36l-3.12-2.64a1.355,1.355,0,0,1-.44-0.88,1.133,1.133,0,0,1,.24-0.84,0.98,0.98,0,0,1,.72-0.4,1.158,1.158,0,0,1,.84.28c1.06,0.69,2.05,1.36,2.96,2a3.51,3.51,0,0,0,2.16.72h4a1.986,1.986,0,0,0,.48-0.04,0.217,0.217,0,0,0,.12-0.28,0.461,0.461,0,0,0-.16-0.32,0.9,0.9,0,0,0-.44-0.08h-2.4a1.3,1.3,0,0,1-.76-0.36,1.037,1.037,0,0,1-.32-0.68,0.886,0.886,0,0,1,.24-0.72,0.959,0.959,0,0,1,.76-0.32h1.76a36.908,36.908,0,0,1,4.48.08,3.192,3.192,0,0,1,2.8,1.92,23.793,23.793,0,0,1,1.36,3.04l0.56,1.36-5.68.48a0.384,0.384,0,0,1-.56-0.16,2.291,2.291,0,0,0-2-.8h0Zm-6.28-10.84a1.188,1.188,0,0,1-.92.04c-0.91-.27-2.27-0.72-4.08-1.36a3.1,3.1,0,0,1-1.12-.8,1.218,1.218,0,0,0-1.6-.48c-0.16.05-.43,0.13-0.8,0.24l-0.64.16v-4.96a0.319,0.319,0,0,1,.32-0.4c0.8-.16,1.94-0.45,3.44-0.88l0.4-.16a5.342,5.342,0,0,1,1.84-.16,9.052,9.052,0,0,1,1.76.24l1.68,0.32-0.4.48c-0.96,1.12-1.66,1.92-2.08,2.4-0.06.16-.24,0.21-0.56,0.16h-0.24a0.8,0.8,0,0,0-.88.56,0.634,0.634,0,0,0,.56.8c1.38,0.85,2.45,1.47,3.2,1.84a1.106,1.106,0,0,1,.64,1.36A1.142,1.142,0,0,1,1571.1,4686.66Zm15.24,12.44a2.5,2.5,0,0,1-.04,1.12,1.844,1.844,0,0,1-1.08.16h-5.68a0.351,0.351,0,0,1-.4-0.4v-0.08a0.391,0.391,0,0,1,.4-0.48q2.16-.165,6.48-0.64a0.286,0.286,0,0,1,.32.32h0Zm-25.36-20.6a0.654,0.654,0,0,1,.16.52,10.921,10.921,0,0,0,0,2v2.08a14.739,14.739,0,0,0-.04,1.92c0.02,0.43-.12.61-0.44,0.56a0.685,0.685,0,0,1-.36-0.08,0.57,0.57,0,0,1-.2-0.32c-0.22-2.77-.4-4.85-0.56-6.24,0-.37.12-0.55,0.36-0.52a4.851,4.851,0,0,0,.6.04A0.577,0.577,0,0,1,1560.98,4678.5Zm12.16,3.28a0.553,0.553,0,0,0-.16-0.6l0.16-.16c0.1-.16.2-0.2,0.28-0.12a0.38,0.38,0,0,0,.44-0.04,1.171,1.171,0,0,1,.44-0.16,0.342,0.342,0,0,1,.24.24,0.284,0.284,0,0,1-.12.4l-0.16.08c-0.27.21-.36,0.39-0.28,0.52s0.22,0.15.44,0.04l0.24-.16a1.31,1.31,0,0,1,1.16-.08,1.09,1.09,0,0,1,.44,1.04,0.244,0.244,0,0,0-.08.2,0.346,0.346,0,0,0,.12.24,0.346,0.346,0,0,1,.12.24,0.481,0.481,0,0,1-.16.28,0.282,0.282,0,0,1-.4,0q-0.24-.165-0.48.24a0.493,0.493,0,0,1-.64-0.16c-0.16-.21-0.11-0.37.16-0.48a1.269,1.269,0,0,0,.32-0.24c0.21-.21.26-0.37,0.16-0.48a0.384,0.384,0,0,0-.48,0l-0.16.08a1.9,1.9,0,0,1-.8.24,0.93,0.93,0,0,1-.8-0.56A0.974,0.974,0,0,1,1573.14,4681.78Zm16.64,2.04a2.7,2.7,0,0,1-.52-0.84,4.227,4.227,0,0,1,0-2,2.7,2.7,0,0,1,.52-0.84,2.637,2.637,0,0,1,.56-0.4l0.24-.16a2.168,2.168,0,0,1,1.12-.24,1.787,1.787,0,0,1,1.16.36,2.981,2.981,0,0,1,.68.76l-0.64.48a2.185,2.185,0,0,0-.24-0.4,0.773,0.773,0,0,0-.32-0.24l-0.08-.08a1.545,1.545,0,0,0-.32-0.08l-0.4-.08a1.1,1.1,0,0,0-.64.16,4.142,4.142,0,0,0-.56.48,1.409,1.409,0,0,0-.24.48l-0.08.16a1.55,1.55,0,0,0-.08.64,2.426,2.426,0,0,0,.16.72,1.619,1.619,0,0,0,.32.64,2.119,2.119,0,0,0,.48.4,2.426,2.426,0,0,0,.72.16l0.72-.16a0.677,0.677,0,0,0,.36-0.24,4.132,4.132,0,0,0,.28-0.48l0.64,0.4a1.184,1.184,0,0,1-.28.52,2.063,2.063,0,0,1-.6.36,1.057,1.057,0,0,1-.4.16l-0.16.08a2.378,2.378,0,0,1-.68.08,2.036,2.036,0,0,1-.92-0.24A1.427,1.427,0,0,1,1589.78,4683.82Zm7.68,0.08h0.24v0.72h-0.4a0.636,0.636,0,0,1-.4-0.08l-0.16-.32v-0.24a1.676,1.676,0,0,1-.64.48,1.9,1.9,0,0,1-.8.24,1.124,1.124,0,0,1-.48-0.08l-0.48-.24-0.24-.4a1.149,1.149,0,0,1-.08-0.52,0.675,0.675,0,0,1,.08-0.44,1.386,1.386,0,0,1,.4-0.4l0.48-.24a1.71,1.71,0,0,1,.64-0.08h0.16a0.513,0.513,0,0,1,.4,0l0.48,0.16v-0.24a0.849,0.849,0,0,0-.96-0.96,1.74,1.74,0,0,0-.64.16,1.612,1.612,0,0,0-.56.32l-0.24-.56a2.68,2.68,0,0,1,1.52-.48,1.706,1.706,0,0,1,1.24.44,1.576,1.576,0,0,1,.44,1.16v1.6Zm-0.8-.96a1.236,1.236,0,0,0-.48-0.16l-0.4-.08a1.74,1.74,0,0,0-.64.16l-0.08.08a0.478,0.478,0,0,0-.32.44,0.62,0.62,0,0,0,.2.48,0.818,0.818,0,0,0,.6.2,1.47,1.47,0,0,0,.56-0.08,1.278,1.278,0,0,0,.44-0.32,0.513,0.513,0,0,0,.12-0.24v-0.48Zm3.76,1.04a0.691,0.691,0,0,0,.24-0.48,0.384,0.384,0,0,0-.24-0.36,2.758,2.758,0,0,0-.8-0.2,1.405,1.405,0,0,1-.4-0.08l-0.64-.32-0.08-.08a0.221,0.221,0,0,1-.16-0.16v-0.4a1.039,1.039,0,0,1,.08-0.48,0.809,0.809,0,0,1,.32-0.4l0.48-.24a1.4,1.4,0,0,1,.56-0.08,2.742,2.742,0,0,1,.88.16,1.766,1.766,0,0,1,.64.32l-0.32.48a2.278,2.278,0,0,0-1.2-.4,1.166,1.166,0,0,0-.44.12,0.383,0.383,0,0,0-.28.36c0,0.16.02,0.24,0.08,0.24l0.08,0.16h0.2c0.08,0,.12.03,0.12,0.08l0.4,0.16,0.64,0.16,0.48,0.24a0.5,0.5,0,0,1,.32.28,1.14,1.14,0,0,1,.08.4,1.354,1.354,0,0,1-.16.52,1.835,1.835,0,0,1-.32.4,0.691,0.691,0,0,1-.48.24l-0.64.08-0.48-.08a1.124,1.124,0,0,1-.48-0.08l-0.4-.16-0.4-.24,0.32-.56a2.581,2.581,0,0,0,1.44.48,1.47,1.47,0,0,0,.56-0.08h0Zm5.04-2.32a2.173,2.173,0,0,1,.08.64v2.32h-0.8v-2.16a1.243,1.243,0,0,0-.2-0.84,0.691,0.691,0,0,0-.48-0.2,0.9,0.9,0,0,0-.36.04,0.61,0.61,0,0,0-.16.12l-0.16.08a0.468,0.468,0,0,0-.32.32l-0.16.32v2.32h-0.8v-5.36h0.8v2.32a1.553,1.553,0,0,1,.6-0.6,1.529,1.529,0,0,1,.84-0.28,1.267,1.267,0,0,1,.56.16,0.925,0.925,0,0,1,.4.32Zm5.36,2.88a2.551,2.551,0,0,1-.8.16,1.663,1.663,0,0,1-.88-0.16l-0.08-.08a1.319,1.319,0,0,1-.52-0.44,2.718,2.718,0,0,1-.36-0.68,1.827,1.827,0,0,1-.16-0.68,2.45,2.45,0,0,1,.16-0.76,1.617,1.617,0,0,1,.36-0.56,1.692,1.692,0,0,1,.72-0.48,2.158,2.158,0,0,1,.76-0.16,2.551,2.551,0,0,1,.8.16,1.879,1.879,0,0,1,.64.48l0.4,0.56a2.954,2.954,0,0,1,.08.8v0.16a0.637,0.637,0,0,1-.08.56l-0.16.24a2.185,2.185,0,0,1-.24.4,1.879,1.879,0,0,1-.64.48h0Zm-0.36-.64a2.553,2.553,0,0,0,.36-0.32,2.185,2.185,0,0,0,.24-0.4l0.08-.48a1.434,1.434,0,0,0-.08-0.56l-0.24-.4-0.4-.24a0.679,0.679,0,0,0-.4-0.08,1.124,1.124,0,0,0-.48.08,1.357,1.357,0,0,0-.36.28,0.582,0.582,0,0,0-.2.44,1.171,1.171,0,0,0-.16.44,0.573,0.573,0,0,0,.08.28,0.756,0.756,0,0,1,.08.32,0.512,0.512,0,0,0,.2.36,1.357,1.357,0,0,0,.36.28,1.124,1.124,0,0,0,.48.08A0.9,0.9,0,0,0,1610.46,4683.9Zm3,0.72h-0.8v-3.84h0.72v0.8a1.562,1.562,0,0,1,.64-0.6,1.859,1.859,0,0,1,.96-0.28,1.341,1.341,0,0,1,.52.12,0.636,0.636,0,0,1,.36.36l0.16,0.48a2.173,2.173,0,0,1,.08.64v2.32h-0.8v-2.16a1.316,1.316,0,0,0-.2-0.76,0.59,0.59,0,0,0-.48-0.28,1.277,1.277,0,0,0-.4.04,0.735,0.735,0,0,0-.28.2l-0.08.08-0.24.24-0.08.16a0.245,0.245,0,0,1-.08.16v2.32Zm-16.8,4.64a5.528,5.528,0,0,1,.64,1.2,7.163,7.163,0,0,1,.32,1.84,4.918,4.918,0,0,1-.32,1.88,4.607,4.607,0,0,1-.96,1.4,3.707,3.707,0,0,1-1.36.96,7.35,7.35,0,0,1-1.92.32h-3.28v-9.12h3.28a5.789,5.789,0,0,1,2.08.32,3.52,3.52,0,0,1,1.36.96Zm-0.88,3a3.746,3.746,0,0,0-.16-1.24,2.073,2.073,0,0,0-.44-0.92,3.643,3.643,0,0,0-.92-0.6,2.494,2.494,0,0,0-1.12-.24h-1.6v6h1.6a2.494,2.494,0,0,0,1.12-.24,2.556,2.556,0,0,0,.88-0.64l0.08-.08a4.326,4.326,0,0,0,.4-0.88A3,3,0,0,0,1595.78,4692.26Zm9.44-.12a3.211,3.211,0,0,1,.24,1.28v0.56h-5.2a1.724,1.724,0,0,0,.12.68,1.377,1.377,0,0,0,.4.52,2.043,2.043,0,0,0,.56.36,1.8,1.8,0,0,0,.72.12,2.068,2.068,0,0,0,.92-0.24,1.245,1.245,0,0,0,.64-0.64l1.44,0.4a2.843,2.843,0,0,1-1.16,1.32,3.922,3.922,0,0,1-1.96.44,3.343,3.343,0,0,1-1.44-.24,4.146,4.146,0,0,1-1.16-.84,2.577,2.577,0,0,1-.68-1,4.53,4.53,0,0,1-.24-1.44,3.523,3.523,0,0,1,.24-1.32,3.326,3.326,0,0,1,.76-1.12,3.286,3.286,0,0,1,1.08-.76,3.664,3.664,0,0,1,1.44-.24,3.88,3.88,0,0,1,1.44.28,3.474,3.474,0,0,1,1.2.76A6.4,6.4,0,0,1,1605.22,4692.14Zm-1.52.8a2.007,2.007,0,0,0-.64-1.32,1.829,1.829,0,0,0-1.12-.36,1.71,1.71,0,0,0-.64.08,1.046,1.046,0,0,0-.52.28,1.538,1.538,0,0,0-.36.6,0.648,0.648,0,0,0-.16.48,0.542,0.542,0,0,0-.08.24h3.52Zm5.92,2.24,0.24,1.44-0.8.24-0.88.08a2.01,2.01,0,0,1-1.2-.48,1.482,1.482,0,0,1-.48-1.2v-7.84h1.76v7.2a0.6,0.6,0,0,0,.64.72h0.4Zm0.96,1.68h1.76v-6.72h-1.76v6.72Zm0-7.68h1.76v-1.68h-1.76v1.68Zm7.76,0.96h1.6l-2.48,6.72h-1.84l-2.48-6.72h1.76l1.76,5.28Zm8.88,1.96a3.523,3.523,0,0,1,.24,1.32v0.56h-5.2a1.724,1.724,0,0,0,.12.68,1.377,1.377,0,0,0,.4.52,2.729,2.729,0,0,0,.6.4,1.71,1.71,0,0,0,.64.08,2.13,2.13,0,0,0,.96-0.24,1.926,1.926,0,0,0,.64-0.64l1.44,0.4a3.914,3.914,0,0,1-1.2,1.28,3.412,3.412,0,0,1-1.92.48,3.343,3.343,0,0,1-1.44-.24,4.146,4.146,0,0,1-1.16-.84,2.577,2.577,0,0,1-.68-1,4.53,4.53,0,0,1-.24-1.44,3.211,3.211,0,0,1,.24-1.28,10.361,10.361,0,0,1,.64-1.04l0.08-.08a1.926,1.926,0,0,1,1.12-.72,2.9,2.9,0,0,1,1.44-.32,3.874,3.874,0,0,1,1.48.32,2.739,2.739,0,0,1,1.08.72A3.2,3.2,0,0,1,1627.22,4692.1Zm-1.52.84a2.007,2.007,0,0,0-.64-1.32,1.829,1.829,0,0,0-1.12-.36,1.71,1.71,0,0,0-.64.08,1.13,1.13,0,0,0-.56.32l-0.4.56-0.08.08a2.975,2.975,0,0,0-.08.64h3.52Zm6.64-2.96c0.1,0,.16.03,0.16,0.08v1.52a3.817,3.817,0,0,0-1.36.32,1.424,1.424,0,0,0-.88.88v4.08h-1.76v-6.72h1.6v1.44a2.787,2.787,0,0,1,.92-1.16,1.983,1.983,0,0,1,1.16-.44h0.16Zm7.2,0.16-2.8,8a2.228,2.228,0,0,1-.8,1.2,2.424,2.424,0,0,1-1.44.4,4.429,4.429,0,0,1-.96-0.08v-1.52a1.124,1.124,0,0,0,.48.08h0.4a0.208,0.208,0,0,0,.24,0l0.24-.24a1.218,1.218,0,0,0,.24-0.4l0.24-.72-2.64-6.72h1.76l1.84,5.2,1.6-5.2h1.6Z" transform="translate(-1175.53 -4673.5)"></path></svg>